# AST/ASF file generated using VICON BodyLanguage
# -----------------------------------------------
:version 1.10
:name VICON
:units
  mass 1.0
  length 0.45
  angle deg
:documentation
   .ast/.asf automatically generated from VICON data using
   VICON BodyBuilder and BodyLanguage model FoxedUp or BRILLIANT.MOD
:root
   order TX TY TZ RX RY RZ
   axis XYZ
   position 0 0 0  
   orientation 0 0 0 
:bonedata
  begin
     id 1 
     name lhipjoint
     direction 0.603808 -0.713975 0.35448 
     length 2.2025 
     axis 0 0 0  XYZ
  end
  begin
     id 2 
     name lfemur
     direction 0.34202 -0.939693 0  
     length 6.55877  
     axis 0 0 20  XYZ
    dof rx ry rz
    limits (-160.0 20.0)
           (-70.0 70.0)
           (-60.0 70.0)
  end
  begin
     id 3 
     name ltibia
     direction 0.34202 -0.939693 0   
     length 6.80302   
     axis 0 0 20   XYZ
    dof rx
    limits (-10.0 170.0)
  end
  begin
     id 4 
     name lfoot
     direction 0.091848 -0.25235 0.963267   
     length 2.03446   
     axis -90 7.62852e-016 20   XYZ
    dof rx rz
    limits (-45.0 90.0)
           (-70.0 20.0)
  end
  begin
     id 5 
     name ltoes
     direction 1.53608e-011 -4.21925e-011 1   
     length 1.02033   
     axis -90 7.62852e-016 20   XYZ
    dof rx
    limits (-90.0 20.0)
  end
  begin
     id 6 
     name rhipjoint
     direction -0.587285 -0.724947 0.359928   
     length 2.16916  
     axis 0 0 0  XYZ 
  end
  begin
     id 7 
     name rfemur
     direction -0.34202 -0.939693 0   
     length 6.43173   
     axis 0 0 -20   XYZ
    dof rx ry rz
    limits (-160.0 20.0)
           (-70.0 70.0)
           (-70.0 60.0)
  end
  begin
     id 8 
     name rtibia
     direction -0.34202 -0.939693 0   
     length 6.70662   
     axis 0 0 -20   XYZ
    dof rx
    limits (-10.0 170.0)
 end
 begin
     id 9 
     name rfoot
     direction -0.11854 -0.325686 0.938018   
     length 2.0773  
     axis -90 -7.62852e-016 -20   XYZ
    dof rx rz
    limits (-45.0 90.0)
           (-20.0 70.0)
  end
  begin
     id 10 
     name rtoes
     direction -1.53547e-011 -4.21838e-011 1   
     length 1.03267   
     axis -90 -7.62852e-016 -20   XYZ
    dof rx
    limits (-90.0 20.0)
  end
  begin
     id 11 
     name lowerback
     direction -0.0286554 0.999539 0.0100613   
     length 2.08751   
     axis 0 0 0   XYZ
    dof rx ry rz
    limits (-20.0 45.0)
           (-30.0 30.0)
           (-30.0 30.0)
  end
  begin
     id 12 
     name upperback
     direction 0.0227093 0.999705 -0.00860929   
     length 2.08517   
     axis 0 0 0   XYZ
    dof rx ry rz
    limits (-20.0 45.0)
           (-30.0 30.0)
           (-30.0 30.0)
  end
  begin
     id 13 
     name thorax
     direction 0.0351627 0.999285 -0.013892   
     length 2.08412   
     axis 0 0 0   XYZ
    dof rx ry rz
    limits (-20.0 45.0)
           (-30.0 30.0)
           (-30.0 30.0)
  end
  begin
     id 14 
     name lowerneck
     direction -0.0696283 0.997344 0.0213922   
     length 1.44164   
     axis 0 0 0   XYZ
    dof rx ry rz
    limits (-20.0 45.0)
           (-30.0 30.0)
           (-30.0 30.0)
  end
  begin
     id 15 
     name upperneck
     direction 0.0531 0.990412 -0.127531   
     length 1.45022   
     axis 0 0 0   XYZ
    dof rx ry rz
    limits (-20.0 45.0)
           (-30.0 30.0)
           (-30.0 30.0)
  end
  begin
     id 16
     name head
     direction 0.0188154 0.998548 -0.0504727  
     length 1.45845  
     axis 0 0 0   XYZ
    dof rx ry rz
    limits (-20.0 45.0)
           (-30.0 30.0)
           (-30.0 30.0)
  end
  begin
     id 17 
     name lclavicle
     direction 0.961559 0.260051 0.088188  
     length 2.86057  
     axis 0 0 0   XYZ
    dof ry rz
    limits (-20.0 10.0)
           (0.0 20.0)
  end
  begin
     id 18 
     name lhumerus
     direction 1 -4.48959e-011 2.88185e-027   
     length 4.36901   
     axis 180 -30 -90   XYZ
    dof rx ry rz
    limits (-60.0 90.0)
           (-90.0 90.0)
           (-90.0 90.0)
  end
  begin
     id 19
     name lradius
     direction 1 -4.48965e-011 -3.92618e-028   
     length 3.21737   
     axis 180 -30 -90   XYZ
    dof rx
    limits (-10.0 170.0)
  end
  begin
     id 20
     name lwrist
     direction 1 -4.49037e-011 2.57246e-027   
     length 1.60869   
     axis -1.61769e-015 90 90   XYZ
    dof ry
    limits (-180.0 0.0)
 end
  begin
     id 21 
     name lhand
     direction 1 -4.48807e-011 5.12958e-027   
     length 0.564313   
     axis -3.27988e-015 90 90   XYZ
    dof rx rz
    limits (-90.0 90.0)
           (-45.0 45.0)
  end
  begin
     id 22 
     name lfingers
     direction 1 -4.48879e-011 1.02687e-026   
     length 0.454963   
     axis -6.5598e-015 90 90   XYZ
    dof rx
    limits (0.0 90.0)
  end
  begin
     id 23
     name lthumb
     direction 0.707107 -6.3475e-011 0.707107   
     length 0.653239   
     axis -90 45 2.19363e-014   XYZ
    dof rx rz
    limits (-45.0 45.0)
           (-45.0 45.0)
  end
  begin
     id 24 
     name rclavicle
     direction -0.954677 0.253915 0.155304   
     length 3.11497  
     axis 0 0 0   XYZ 
    dof ry rz
    limits (-10.0 20.0)
           (-20.0 0.0)
  end
  begin
     id 25 
     name rhumerus
     direction -1 -4.48958e-011 -8.20169e-028  
     length 4.34118   
     axis 180 30 90   XYZ
    dof rx ry rz
    limits (-90.0 60.0)
           (-90.0 90.0)
           (-90.0 90.0)
  end
  begin
     id 26 
     name rradius
     direction -1 -4.48978e-011 1.5676e-027   
     length 3.09531   
     axis 180 30 90   XYZ
    dof rx
    limits (-10.0 170.0)
  end
  begin
     id 27 
     name rwrist
     direction -1 -4.49001e-011 2.57123e-027   
     length 1.54765   
     axis -1.61769e-015 -90 -90   XYZ
    dof ry
    limits (-180.0 0.0)
  end
  begin
     id 28
     name rhand
     direction -1 -4.48847e-011 5.13225e-027   
     length 0.597446   
     axis -3.27988e-015 -90 -90   XYZ
    dof rx rz
    limits (-90.0 90.0)
           (-45.0 45.0)
  end
  begin
     id 29
     name rfingers
     direction -1 -4.49094e-011 1.02974e-026   
     length 0.481677   
     axis -6.5598e-015 -90 -90   XYZ
    dof rx
    limits (0.0 90.0)
  end
  begin
     id 30
     name rthumb
     direction -0.707107 -6.34859e-011 0.707107   
     length 0.691594   
     axis -90 -45 -2.19363e-014   XYZ
    dof rx rz
    limits (-45.0 45.0)
           (-45.0 45.0)
  end
:hierarchy
  begin
    root lhipjoint rhipjoint lowerback
    lhipjoint lfemur
    lfemur ltibia
    ltibia lfoot
    lfoot ltoes
    rhipjoint rfemur
    rfemur rtibia
    rtibia rfoot
    rfoot rtoes
    lowerback upperback
    upperback thorax
    thorax lowerneck lclavicle rclavicle
    lowerneck upperneck
    upperneck head
    lclavicle lhumerus
    lhumerus lradius
    lradius lwrist
    lwrist lhand lthumb
    lhand lfingers
    rclavicle rhumerus
    rhumerus rradius
    rradius rwrist
    rwrist rhand rthumb
    rhand rfingers
  end

#!OML:ASF I:\Acrobat_Osman\acrobat\cartwheel_test 2\Patient 1\Session 1\acrobat.ASF
:FULLY-SPECIFIED
:DEGREES
78
root 10.1664 15.6257 7.76536 183.665 -76.3106 -174.485
lowerback -2.42196 2.0026 -8.17871
upperback 4.13141 3.01027 0.661831
thorax 5.23459 1.11591 5.47398
lowerneck -10.214 1.49261 -0.777545
upperneck 0.681013 2.13638 -3.2911
head 1.99734 0.932059 -0.811443
rclavicle -9.34288e-015 -7.95139e-016
rhumerus -40.9054 6.02006 -85.2704
rradius 50.2444
rwrist -7.14646
rhand -12.9435 23.0448
rfingers 7.12502
rthumb 13.1477 -6.52066
lclavicle -9.34288e-015 -7.95139e-016
lhumerus -43.902 -19.9333 98.5519
lradius 60.7836
lwrist 20.1474
lhand -17.2253 52.2993
lfingers 7.12502
lthumb 9.01798 82.0865
rfemur -27.397 -11.746 16.2286
rtibia 63.1257
rfoot 6.80549 -7.08517
rtoes -25.7876
lfemur -25.3265 -7.78436 -20.7372
ltibia 42.3786
lfoot -21.7792 19.3436
ltoes -29.6555
79
root 10.156 15.6253 7.76757 183.68 -75.8459 -174.42
lowerback -2.4667 1.98383 -8.14964
upperback 4.1834 2.98972 0.631595
thorax 5.32125 1.10106 5.42819
lowerneck -10.1308 1.45339 -0.835919
upperneck 0.845724 2.09986 -3.36107
head 2.03682 0.910582 -0.825937
rclavicle 1.91827e-014 1.98785e-014
rhumerus -40.7091 6.45649 -85.331
rradius 50.8801
rwrist -7.80503
rhand -13.1743 22.9662
rfingers 7.12502
rthumb 12.9252 -6.61347
lclavicle 1.91827e-014 1.98785e-014
lhumerus -43.605 -19.7657 98.4722
lradius 61.1338
lwrist 19.77
lhand -16.2554 52.3441
lfingers 7.12502
lthumb 9.95378 82.0888
rfemur -27.4313 -11.4117 16.2201
rtibia 63.0653
rfoot 6.4972 -6.74703
rtoes -26.4475
lfemur -25.3608 -7.45067 -20.7627
ltibia 42.4579
lfoot -21.8136 19.6555
ltoes -29.8694
80
root 10.1441 15.6223 7.77297 183.854 -75.2568 -174.549
lowerback -2.48394 1.97718 -8.11996
upperback 4.20494 2.9837 0.556933
thorax 5.35971 1.09778 5.33373
lowerneck -9.94332 1.4389 -0.686509
upperneck 0.997118 2.07374 -3.51254
head 2.05749 0.894781 -0.902425
rclavicle 2.67365e-014 -9.14409e-015
rhumerus -40.5993 6.72303 -85.4317
rradius 51.6273
rwrist -8.35667
rhand -13.2248 22.9001
rfingers 7.12502
rthumb 12.8765 -6.68264
lclavicle 2.67365e-014 -9.14409e-015
lhumerus -43.469 -19.6959 98.4115
lradius 61.4496
lwrist 19.5105
lhand -17.4824 53.0492
lfingers 7.12502
lthumb 8.76982 82.847
rfemur -27.4256 -11.1718 16.1535
rtibia 63.0183
rfoot 6.28312 -6.34818
rtoes -27.4194
lfemur -25.3291 -7.2176 -20.8377
ltibia 42.5134
lfoot -21.9476 20.0465
ltoes -29.3076
81
root 10.1318 15.6181 7.7795 183.9 -74.496 -174.523
lowerback -2.50124 1.93331 -8.11452
upperback 4.16257 2.92512 0.562421
thorax 5.33335 1.07173 5.33297
lowerneck -9.77772 1.43655 -0.778621
upperneck 1.24474 2.09132 -3.51764
head 2.10868 0.902303 -0.888111
rclavicle 1.17283e-014 1.63003e-014
rhumerus -40.6118 7.13429 -85.5572
rradius 52.4792
rwrist -8.85869
rhand -13.7942 22.5448
rfingers 7.12502
rthumb 12.3275 -7.07181
lclavicle 1.17283e-014 1.63003e-014
lhumerus -43.4673 -19.68 98.4946
lradius 61.717
lwrist 19.5533
lhand -16.7714 52.4056
lfingers 7.12502
lthumb 9.45587 82.1735
rfemur -27.4848 -10.7824 16.1316
rtibia 63.0075
rfoot 6.08269 -6.10236
rtoes -27.8573
lfemur -25.2622 -6.96082 -20.8732
ltibia 42.5539
lfoot -21.9986 20.6221
ltoes -29.2918
82
root 10.1183 15.6148 7.78505 183.852 -73.5056 -174.297
lowerback -2.68107 1.86337 -8.11373
upperback 4.10683 2.84349 0.683231
thorax 5.3841 1.02926 5.4625
lowerneck -9.66488 1.42253 -1.18599
upperneck 1.49999 2.12488 -3.4263
head 2.166 0.916477 -0.787342
rclavicle -3.68746e-014 -2.3059e-014
rhumerus -40.6245 7.8782 -85.6114
rradius 53.3965
rwrist -9.46248
rhand -14.732 22.0403
rfingers 7.12502
rthumb 11.4232 -7.62849
lclavicle -3.68746e-014 -2.3059e-014
lhumerus -43.4682 -19.6513 98.7617
lradius 62.0018
lwrist 19.7594
lhand -18.579 52.8913
lfingers 7.12502
lthumb 7.7115 82.7306
rfemur -27.7135 -10.1601 16.1799
rtibia 63.0374
rfoot 5.68601 -6.18809
rtoes -26.4754
lfemur -25.2505 -6.53447 -20.8441
ltibia 42.5851
lfoot -21.9813 21.3285
ltoes -29.3426
83
root 10.104 15.6137 7.7887 183.923 -72.3583 -174.161
lowerback -2.93659 1.83399 -8.08539
upperback 4.06161 2.82446 0.73564
thorax 5.48424 1.01756 5.51143
lowerneck -9.48039 1.41735 -1.22896
upperneck 1.59117 2.12665 -3.52885
head 2.16376 0.914221 -0.813549
rclavicle -4.83047e-014 -1.86858e-014
rhumerus -40.6089 8.33369 -85.7012
rradius 54.3299
rwrist -9.94501
rhand -15.274 21.8138
rfingers 7.12502
rthumb 10.9005 -7.88327
lclavicle -4.83047e-014 -1.86858e-014
lhumerus -43.4589 -19.7016 98.9801
lradius 62.2827
lwrist 19.9035
lhand -16.0406 51.6424
lfingers 7.12502
lthumb 10.161 81.377
rfemur -28.0305 -9.59445 16.2073
rtibia 63.0972
rfoot 5.18976 -6.32124
rtoes -24.6181
lfemur -25.2813 -6.0702 -20.8343
ltibia 42.6134
lfoot -22.0293 22.114
ltoes -29.2836
84
root 10.0918 15.6113 7.79403 184.221 -71.1289 -174.391
lowerback -3.08655 1.71908 -8.2123
upperback 4.1041 2.6895 0.81273
thorax 5.62935 0.934848 5.66417
lowerneck -9.37566 1.46627 -1.28857
upperneck 1.56604 2.19685 -3.61228
head 2.13763 0.946751 -0.827106
rclavicle -2.5842e-014 -1.31198e-014
rhumerus -40.4168 8.89178 -85.7639
rradius 55.1868
rwrist -10.3637
rhand -15.46 21.8089
rfingers 7.12502
rthumb 10.721 -7.89757
lclavicle -2.5842e-014 -1.31198e-014
lhumerus -43.273 -19.4949 99.144
lradius 62.4
lwrist 19.8054
lhand -16.0416 51.7419
lfingers 7.12502
lthumb 10.16 81.4765
rfemur -28.2765 -9.31421 16.1012
rtibia 63.1784
rfoot 4.80644 -6.13077
rtoes -24.0761
lfemur -25.2236 -5.52024 -20.9741
ltibia 42.6554
lfoot -22.0633 22.8733
ltoes -29.7514
85
root 10.0802 15.6071 7.80115 184.59 -69.7599 -174.769
lowerback -3.2062 1.57509 -8.39175
upperback 4.20301 2.51569 0.910233
thorax 5.82262 0.824757 5.86538
lowerneck -9.3763 1.45199 -1.60791
upperneck 1.47617 2.2013 -3.47668
head 2.10084 0.950688 -0.728431
rclavicle -1.76918e-014 5.56597e-015
rhumerus -40.0714 9.47573 -85.8588
rradius 55.9083
rwrist -10.6571
rhand -15.6893 21.7875
rfingers 7.12502
rthumb 10.4999 -7.93024
lclavicle -1.76918e-014 5.56597e-015
lhumerus -42.9123 -19.2265 99.233
lradius 62.297
lwrist 19.3425
lhand -16.0143 51.5733
lfingers 7.12502
lthumb 10.1864 81.3066
rfemur -28.4846 -9.07537 15.9378
rtibia 63.2693
rfoot 4.42138 -5.72623
rtoes -23.9843
lfemur -25.0857 -4.85745 -21.1916
ltibia 42.7189
lfoot -22.1652 23.5677
ltoes -29.9886
86
root 10.0653 15.602 7.81359 184.973 -68.3506 -175.097
lowerback -3.27852 1.51561 -8.30031
upperback 4.13956 2.44155 0.786584
thorax 5.81575 0.797704 5.67882
lowerneck -9.23621 1.32132 -1.45829
upperneck 1.44815 2.00178 -3.33713
head 2.06386 0.859736 -0.71947
rclavicle -2.59414e-014 1.47101e-014
rhumerus -39.9973 9.54703 -86.317
rradius 56.5909
rwrist -10.8943
rhand -16.0367 21.7267
rfingers 7.12502
rthumb 10.1648 -8.00779
lclavicle -2.59414e-014 1.47101e-014
lhumerus -43.0561 -19.7101 99.4818
lradius 62.6412
lwrist 19.976
lhand -16.8124 52.0097
lfingers 7.12502
lthumb 9.41632 81.7793
rfemur -28.7723 -8.91779 15.7906
rtibia 63.3687
rfoot 3.92487 -5.30472
rtoes -24.1926
lfemur -24.9965 -4.41592 -21.4024
ltibia 42.7875
lfoot -22.4602 24.3273
ltoes -29.0425
87
root 10.0498 15.595 7.83239 185.588 -66.8544 -175.586
lowerback -3.32377 1.43759 -8.22856
upperback 3.91603 2.33958 0.639422
thorax 5.62676 0.771912 5.47202
lowerneck -8.95494 1.17364 -1.1774
upperneck 1.52463 1.77166 -3.26738
head 2.03818 0.75308 -0.757057
rclavicle -3.51849e-014 3.33958e-014
rhumerus -40.2184 9.709 -86.7792
rradius 57.2832
rwrist -11.2623
rhand -16.1269 21.7296
rfingers 7.12502
rthumb 10.0777 -8.00911
lclavicle -3.51849e-014 3.33958e-014
lhumerus -43.4623 -20.1291 99.7439
lradius 62.9399
lwrist 20.277
lhand -17.3737 52.2795
lfingers 7.12502
lthumb 8.87475 82.0729
rfemur -29.2249 -9.08277 15.5607
rtibia 63.5112
rfoot 3.41686 -4.88834
rtoes -24.165
lfemur -24.9958 -4.01152 -21.7235
ltibia 42.8441
lfoot -22.7857 25.1828
ltoes -27.4606
88
root 10.0336 15.5898 7.84219 185.955 -65.1644 -175.901
lowerback -3.36552 1.59775 -8.11428
upperback 3.75501 2.55599 0.418725
thorax 5.45811 0.902316 5.18667
lowerneck -8.88767 0.819195 -0.563775
upperneck 1.7072 1.24285 -3.26924
head 2.08652 0.495238 -0.888012
rclavicle 1.07344e-014 -7.95139e-016
rhumerus -40.4944 9.00841 -87.1322
rradius 57.9361
rwrist -11.3478
rhand -16.1753 21.9392
rfingers 7.12502
rthumb 10.031 -7.80172
lclavicle 1.07344e-014 -7.95139e-016
lhumerus -43.8905 -21.4358 99.9867
lradius 63.2983
lwrist 20.7799
lhand -17.8575 52.7222
lfingers 7.12502
lthumb 8.40782 82.5349
rfemur -29.5679 -9.29251 15.4199
rtibia 63.6704
rfoot 2.79507 -4.64431
rtoes -22.5426
lfemur -24.839 -3.33506 -21.989
ltibia 42.8735
lfoot -23.1139 26.0011
ltoes -26.9589
89
root 10.0156 15.5842 7.84915 186.11 -63.4547 -175.97
lowerback -3.49238 1.71266 -7.91792
upperback 3.68202 2.71443 0.250692
thorax 5.44365 0.995292 4.91324
lowerneck -9.04341 0.43664 0.0677334
upperneck 1.82065 0.671595 -3.27478
head 2.14883 0.214637 -1.0265
rclavicle 2.62396e-014 -1.51076e-014
rhumerus -40.6105 8.25643 -87.4846
rradius 58.5186
rwrist -11.4022
rhand -16.3379 22.2232
rfingers 7.12502
rthumb 9.8742 -7.52523
lclavicle 2.62396e-014 -1.51076e-014
lhumerus -44.0199 -22.4833 100.003
lradius 63.536
lwrist 20.8516
lhand -17.5459 52.6195
lfingers 7.12502
lthumb 8.70857 82.4198
rfemur -29.8733 -9.45421 15.4346
rtibia 63.8261
rfoot 1.98893 -4.63306
rtoes -20.8537
lfemur -24.6741 -2.72579 -22.1264
ltibia 42.8622
lfoot -23.4926 26.8246
ltoes -27.3957
90
root 9.994 15.5746 7.86066 186.406 -61.678 -176.11
lowerback -3.69719 1.31151 -7.96727
upperback 3.56721 2.18843 0.525388
thorax 5.5036 0.730466 5.20011
lowerneck -9.08048 0.38433 -0.676334
upperneck 1.82639 0.666152 -2.92322
head 2.14902 0.214066 -0.78471
rclavicle 1.96797e-014 1.19271e-015
rhumerus -40.6655 9.3761 -87.6518
rradius 59.0274
rwrist -11.65
rhand -16.2912 22.3833
rfingers 7.12502
rthumb 9.91925 -7.36299
lclavicle 1.96797e-014 1.19271e-015
lhumerus -43.8128 -21.302 99.9127
lradius 63.4074
lwrist 19.6731
lhand -15.2971 50.7163
lfingers 7.12502
lthumb 10.8782 80.4146
rfemur -30.3047 -9.68487 15.4151
rtibia 63.9753
rfoot 1.05356 -4.55091
rtoes -20.3579
lfemur -24.6076 -2.34444 -22.3052
ltibia 42.8313
lfoot -23.9049 27.8398
ltoes -26.7184
91
root 9.96866 15.5665 7.86124 186.586 -59.7185 -176.338
lowerback -3.73915 0.93567 -8.16147
upperback 3.44276 1.68554 0.872499
thorax 5.45836 0.474367 5.63991
lowerneck -9.27371 0.277658 -1.98668
upperneck 2.13709 0.649606 -2.14781
head 2.27592 0.212045 -0.312379
rclavicle 5.66536e-015 -4.37326e-015
rhumerus -40.9005 10.6608 -87.7189
rradius 59.5185
rwrist -11.7644
rhand -16.3085 22.4054
rfingers 7.12502
rthumb 9.90257 -7.34169
lclavicle 5.66536e-015 -4.37326e-015
lhumerus -43.9762 -20.473 100.183
lradius 63.7781
lwrist 19.5898
lhand -14.6634 50.3168
lfingers 7.12502
lthumb 11.4894 79.9819
rfemur -30.4493 -9.85819 15.3253
rtibia 64.0778
rfoot -0.130857 -4.23737
rtoes -19.5786
lfemur -24.283 -1.7583 -22.5453
ltibia 42.8508
lfoot -24.5089 28.8161
ltoes -24.9818
